<?xml version="1.0" encoding="UTF-8"?>
<!DOCTYPE svg PUBLIC "-//W3C//DTD SVG 1.1//EN" "http://www.w3.org/Graphics/SVG/1.1/DTD/svg11.dtd">
<svg version="1.1" xmlns="http://www.w3.org/2000/svg" xmlns:xlink="http://www.w3.org/1999/xlink" x="0" y="0" width="24" height="24" viewBox="0, 0, 24, 24">
  <path d="M11.081,13.304 C11.208,13.382 11.539,14.221 11.344,14.571 C11.028,15.14 10.761,15.177 10.605,15.261 C10.448,15.346 9.816,16.346 9.52,16.888 C9.224,17.431 8.516,17.958 8.115,17.998 C5.622,18.267 4.89,17.132 4.856,16.875 C4.822,16.617 5.082,16.272 5.107,16.272 C5.132,16.272 4.614,15.483 4.466,15.113 C4.318,14.744 4.006,13.645 3.956,12.609 C3.907,11.574 3.414,10.958 3.291,10.736 C1.322,8.052 1.109,8.338 0.48,7.531 C0.231,7.183 0.379,6.647 0.591,6.372 C0.685,6.279 0.919,6.111 1.294,6.125 C2.121,6.453 4.844,9.491 4.844,9.491 L5.115,9.183 C5.115,9.183 1.546,3.903 1.449,3.597 C1.352,3.291 1.514,2.779 1.622,2.673 C1.729,2.566 2.262,2.182 2.842,2.697 C5.043,5.147 6.848,7.801 6.848,7.801 C6.848,7.801 5.725,1.412 5.64,0.861 C5.732,0.212 6.434,-0.38 7.354,0.306 C7.967,1.634 8.882,7.776 8.882,7.776 C8.882,7.776 9.24,7.788 9.24,7.764 C9.24,7.739 9.838,1.922 9.868,1.625 C10.033,1.102 11.174,0.824 11.542,1.825 C11.567,2.294 11.442,7.19 11.292,9.324 C8.113,9.481 7.693,9.891 7.2,10.556 C6.707,11.22 7.035,12.138 7.696,12.621 C8.356,13.103 10.191,13.294 11.081,13.304 z" fill="#465564"/>
  <path d="M14.508,15.36 L14.788,15.676 C14.788,15.676 11.912,21.14 11.626,22.369 C11.426,23.401 13.022,23.618 13.309,23.072 C13.596,22.525 16.425,16.868 16.425,16.868 C16.425,16.868 16.394,21.27 16.629,23.348 C16.734,23.678 17.41,24.351 18.005,23.774 C18.25,23.521 18.316,23.325 18.366,22.859 C18.416,22.393 18.643,16.702 18.643,16.702 L19.022,16.609 C19.022,16.609 19.477,19.907 19.734,21.103 C19.991,22.298 21.404,21.341 21.408,20.918 C21.411,20.494 21.306,20.132 21.306,20.132 C21.306,20.132 20.857,17.058 21.195,15.731 C21.445,14.751 21.944,14.212 22.147,13.799 C22.351,13.386 22.532,13.073 22.656,12.486 C22.78,11.899 22.905,11.025 22.905,11.025 C22.905,11.025 23.364,10.924 23.442,10.72 C23.519,10.516 23.501,10.236 23.451,10.018 C23.451,10.018 23.035,8.601 21.066,7.521 C20.59,7.417 20.243,7.605 20.243,7.605 L19.429,7.873 C19.429,7.873 18.664,7.736 17.83,7.928 C16.996,8.12 16.471,8.326 16.471,8.326 C16.471,8.326 13.205,9.756 12.536,9.985 C11.867,10.215 11.279,10.073 9.38,10.323 C8.771,10.465 8.661,10.428 8.243,10.655 C7.824,10.883 7.836,11.256 7.836,11.256 C7.836,11.256 7.894,11.695 8.474,11.959 C9.054,12.224 10.08,12.473 11.58,12.551 C12.363,12.584 13.069,12.515 13.202,12.549 C13.334,12.584 13.799,12.8 13.799,12.8 L12.07,15.065 L9.842,17.904 C9.842,17.904 9.169,18.74 9.134,19.033 C9.098,19.327 9.333,19.732 9.405,19.798 C9.478,19.863 9.998,20.142 10.367,19.896 C10.735,19.651 14.508,15.36 14.508,15.36 z" fill="#465564"/>
</svg>
